<svg width="1862" height="460" viewBox="0 0 1862 460" fill="none" xmlns="http://www.w3.org/2000/svg">
<circle cx="143.872" cy="83.626" r="15" transform="rotate(-45 143.872 83.626)" fill="#036770"/>
<path d="M202.562 142.316L145.994 85.7474" stroke="#036770" stroke-width="20" stroke-linecap="round"/>
<circle cx="261.211" cy="83.6258" r="15" transform="rotate(45 261.211 83.6258)" fill="#036770"/>
<path d="M202.521 142.315L259.09 85.7469" stroke="#036770" stroke-width="20" stroke-linecap="round"/>
<circle cx="202.914" cy="138.667" r="15" fill="#036770"/>
<path d="M202.914 221.667L202.914 141.667" stroke="#036770" stroke-width="20" stroke-linecap="round"/>
<circle cx="33.6594" cy="193.155" r="15" transform="rotate(-96.43 33.6594 193.155)" fill="#036770"/>
<path d="M116.138 183.86L36.6409 192.819" stroke="#036770" stroke-width="20" stroke-linecap="round"/>
<circle cx="106.816" cy="101.414" r="15" transform="rotate(-6.43 106.816 101.414)" fill="#036770"/>
<path d="M116.111 183.892L107.152 104.395" stroke="#036770" stroke-width="20" stroke-linecap="round"/>
<circle cx="113.504" cy="181.31" r="15" transform="rotate(-51.43 113.504 181.31)" fill="#036770"/>
<path d="M178.396 233.058L115.849 183.18" stroke="#036770" stroke-width="20" stroke-linecap="round"/>
<circle cx="51.5188" cy="347.558" r="15" transform="rotate(-147.86 51.5188 347.558)" fill="#036770"/>
<path d="M95.6738 277.278L53.1146 345.018" stroke="#036770" stroke-width="20" stroke-linecap="round"/>
<circle cx="25.4028" cy="233.163" r="15" transform="rotate(-57.86 25.4028 233.163)" fill="#036770"/>
<path d="M95.6826 277.318L27.9426 234.759" stroke="#036770" stroke-width="20" stroke-linecap="round"/>
<circle cx="92.0381" cy="277.747" r="15" transform="rotate(-102.86 92.0381 277.747)" fill="#036770"/>
<path d="M172.956 259.274L94.9627 277.079" stroke="#036770" stroke-width="20" stroke-linecap="round"/>
<circle cx="181.808" cy="430.986" r="15" transform="rotate(160.7 181.808 430.986)" fill="#036770"/>
<path d="M154.375 352.651L180.816 428.155" stroke="#036770" stroke-width="20" stroke-linecap="round"/>
<circle cx="76.0772" cy="380.102" r="15" transform="rotate(-109.3 76.0772 380.102)" fill="#036770"/>
<path d="M154.413 352.669L78.909 379.11" stroke="#036770" stroke-width="20" stroke-linecap="round"/>
<circle cx="152.476" cy="355.786" r="15" transform="rotate(-154.3 152.476 355.786)" fill="#036770"/>
<path d="M188.47 280.996L153.777 353.082" stroke="#036770" stroke-width="20" stroke-linecap="round"/>
<circle cx="328.751" cy="380.383" r="15" transform="rotate(109.3 328.751 380.383)" fill="#036770"/>
<path d="M250.416 352.951L325.92 379.392" stroke="#036770" stroke-width="20" stroke-linecap="round"/>
<circle cx="223.02" cy="431.268" r="15" transform="rotate(-160.7 223.02 431.268)" fill="#036770"/>
<path d="M250.453 352.933L224.012 428.437" stroke="#036770" stroke-width="20" stroke-linecap="round"/>
<circle cx="251.681" cy="356.391" r="15" transform="rotate(154.3 251.681 356.391)" fill="#036770"/>
<path d="M215.688 281.601L250.38 353.687" stroke="#036770" stroke-width="20" stroke-linecap="round"/>
<circle cx="409.955" cy="197.881" r="15" transform="rotate(45 409.955 197.881)" fill="#036770"/>
<path d="M351.266 256.57L407.834 200.002" stroke="#036770" stroke-width="20" stroke-linecap="round"/>
<circle cx="409.956" cy="315.219" r="15" transform="rotate(135 409.956 315.219)" fill="#036770"/>
<path d="M351.266 256.529L407.834 313.097" stroke="#036770" stroke-width="20" stroke-linecap="round"/>
<circle cx="354.914" cy="256.922" r="15" transform="rotate(90 354.914 256.922)" fill="#036770"/>
<circle cx="271.914" cy="256.922" r="15" transform="rotate(90 271.914 256.922)" fill="#036770"/>
<path d="M271.914 256.922L351.914 256.922" stroke="#036770" stroke-width="20" stroke-linecap="round"/>
<circle cx="355.795" cy="30" r="15" fill="#036770"/>
<path d="M355.795 113L355.795 33" stroke="#036770" stroke-width="20" stroke-linecap="round"/>
<circle cx="438.766" cy="112.971" r="15" transform="rotate(90 438.766 112.971)" fill="#036770"/>
<path d="M355.766 112.971L435.766 112.971" stroke="#036770" stroke-width="20" stroke-linecap="round"/>
<circle cx="358.623" cy="110.669" r="15" transform="rotate(45 358.623 110.669)" fill="#036770"/>
<circle cx="299.934" cy="169.359" r="15" transform="rotate(45 299.934 169.359)" fill="#036770"/>
<path d="M299.934 169.359L356.502 112.79" stroke="#036770" stroke-width="20" stroke-linecap="round"/>
<path d="M545.328 358L558.531 318.547H618.688L631.969 358H662.906L606.5 198H570.719L514.391 358H545.328ZM566.344 295.266L587.984 230.812H589.234L610.875 295.266H566.344ZM737.301 358H765.582V287.453C765.582 272.219 777.066 261.437 792.613 261.437C797.379 261.437 803.316 262.297 805.738 263.078V237.062C803.16 236.594 798.707 236.281 795.582 236.281C781.832 236.281 770.348 244.094 765.973 258H764.723V238H737.301V358ZM919.371 269.719C915.465 249.406 899.215 236.438 871.09 236.438C842.184 236.438 822.496 250.656 822.574 272.844C822.496 290.344 833.277 301.906 856.324 306.672L876.793 310.969C887.809 313.391 892.965 317.844 892.965 324.641C892.965 332.844 884.059 339.016 870.621 339.016C857.652 339.016 849.215 333.391 846.793 322.609L819.215 325.266C822.73 347.297 841.246 360.344 870.699 360.344C900.699 360.344 921.871 344.797 921.949 322.062C921.871 304.953 910.855 294.484 888.199 289.562L867.73 285.188C855.543 282.453 850.699 278.234 850.777 271.281C850.699 263.156 859.684 257.531 871.48 257.531C884.527 257.531 891.402 264.641 893.59 272.531L919.371 269.719ZM1005.19 238H981.52V209.25H953.238V238H936.207V259.875H953.238V326.594C953.082 349.172 969.488 360.266 990.738 359.641C998.785 359.406 1004.33 357.844 1007.38 356.828L1002.61 334.719C1001.05 335.109 997.848 335.812 994.332 335.812C987.223 335.812 981.52 333.312 981.52 321.906V259.875H1005.19V238ZM1028.84 358H1057.13V287.453C1057.13 272.219 1068.61 261.437 1084.16 261.437C1088.92 261.437 1094.86 262.297 1097.28 263.078V237.062C1094.7 236.594 1090.25 236.281 1087.12 236.281C1073.37 236.281 1061.89 244.094 1057.52 258H1056.27V238H1028.84V358ZM1164.25 360.344C1192.22 360.344 1211.44 346.672 1216.44 325.812L1190.04 322.844C1186.21 333 1176.83 338.312 1164.64 338.312C1146.36 338.312 1134.25 326.281 1134.02 305.734H1217.61V297.062C1217.61 254.953 1192.3 236.438 1162.77 236.438C1128.39 236.438 1105.97 261.672 1105.97 298.703C1105.97 336.359 1128.08 360.344 1164.25 360.344ZM1134.1 286.672C1134.96 271.359 1146.29 258.469 1163.16 258.469C1179.41 258.469 1190.35 270.344 1190.5 286.672H1134.1ZM1276.07 360.422C1294.9 360.422 1306.15 351.594 1311.3 341.516H1312.24V358H1339.43V277.687C1339.43 245.969 1313.57 236.438 1290.68 236.438C1265.45 236.438 1246.07 247.687 1239.82 269.562L1266.23 273.312C1269.04 265.109 1277.01 258.078 1290.84 258.078C1303.96 258.078 1311.15 264.797 1311.15 276.594V277.062C1311.15 285.188 1302.63 285.578 1281.46 287.844C1258.18 290.344 1235.91 297.297 1235.91 324.328C1235.91 347.922 1253.18 360.422 1276.07 360.422ZM1283.41 339.641C1271.62 339.641 1263.18 334.25 1263.18 323.859C1263.18 313 1272.63 308.469 1285.29 306.672C1292.71 305.656 1307.55 303.781 1311.23 300.812V314.953C1311.23 328.312 1300.45 339.641 1283.41 339.641ZM1367.87 358H1396.15V285.031C1396.15 270.266 1405.99 260.266 1418.18 260.266C1430.13 260.266 1438.34 268.312 1438.34 280.656V358H1466.07V283.156C1466.07 269.641 1474.12 260.266 1487.79 260.266C1499.2 260.266 1508.26 266.984 1508.26 281.828V358H1536.62V277.453C1536.62 250.656 1521.15 236.438 1499.12 236.438C1481.7 236.438 1468.41 245.031 1463.1 258.391H1461.85C1457.24 244.797 1445.6 236.438 1429.43 236.438C1413.34 236.438 1401.3 244.719 1396.3 258.391H1394.9V238H1367.87V358Z" fill="#036770"/>
<circle cx="696" cy="213" r="17" fill="#036770"/>
<path d="M696 358L696 253" stroke="#036770" stroke-width="28"/>
<path d="M686 242C689 238.998 690.145 238.092 692 235C695 230 689 230 685 226C680.999 222 677.809 214.959 679.999 208C682.344 200.55 695.999 196 695.999 196L711.999 208C711.999 208 711.499 221.5 707 226C702.5 230.5 697 230 700 235C701.855 238.092 702.998 239 706 242C707 243 709.653 245.211 709.999 251L709.999 358H681.999C681.999 358 681.999 279 682 251C682.289 245.039 685 243 686 242Z" fill="#036770"/>
<path d="M1551 344.313C1551 353.258 1545.39 358 1536 358C1526.61 358 1519 345.744 1519 330.626C1519 315.507 1533.77 301.07 1537 320.075C1539.5 334.802 1550 332.309 1551 344.313Z" fill="#036770"/>
<circle cx="1584" cy="340" r="17" fill="#036770"/>
</svg>
