<svg width="137" height="24" viewBox="0 0 137 24" fill="none" xmlns="http://www.w3.org/2000/svg">
	<path fill-rule="evenodd" clip-rule="evenodd" d="M34.512 18C32.3915 18 30.5739 17.31 28.9412 16.2833L29.9509 14.7519C31.5836 15.7952 33.0815 16.3002 34.7643 16.3002C36.7334 16.3002 37.6591 15.5428 37.6591 14.6509C37.6591 12.0925 29.3283 13.6242 29.3283 9.55129C29.3283 7.56529 31.3143 6 34.512 6C36.6663 6 38.5344 6.80788 39.6282 7.902L38.383 9.18106C37.4403 8.35624 35.9929 7.69976 34.4784 7.69976C32.61 7.69976 31.3479 8.37318 31.3479 9.33247C31.3479 11.7056 39.6956 10.4432 39.6956 14.4487C39.6956 16.5695 37.5582 18 34.512 18ZM47.8588 13.1024V17.596H45.8392V13.0854L40.7901 6.38732H43.1463L46.933 11.571L50.5178 6.38732H52.8405L47.8588 13.1024ZM66.9279 17.5961V8.81068L66.3724 10.0057L62.4008 17.5961H61.1888L57.2676 10.0057L56.7121 8.81068V17.5961H54.7765V6.38703H57.587L61.3571 13.9269L61.8788 15.0715L62.4008 13.9269L66.12 6.38703H68.897V17.5961H66.9279ZM79.8821 9.71954C79.8821 8.79378 79.2595 8.10378 77.7277 8.10378H74.0084V11.7225H77.8121C79.3435 11.7225 79.8821 10.9817 79.8821 10.0728V9.71954ZM77.5089 13.3718H74.0084V17.5961H71.9886V6.38707H77.5089C80.5721 6.38707 81.9185 7.76707 81.9185 9.71954V10.0224C81.9185 11.9748 80.5721 13.3718 77.5089 13.3718ZM92.9226 17.5961V12.7657H86.1737V17.5961H84.1542V6.38703H86.1737V11.1334H92.9226V6.38703H94.9421V17.5961H92.9226ZM107.138 11.3015C107.138 9.38294 105.808 7.73365 103.351 7.73365C100.893 7.73365 99.5809 9.38294 99.5809 11.3015V12.6649C99.5809 14.5835 100.893 16.2667 103.351 16.2667C105.808 16.2667 107.138 14.5835 107.138 12.6649V11.3015ZM103.351 18C99.7492 18 97.5444 15.4419 97.5444 12.6985V11.3015C97.5444 8.50765 99.7492 6 103.351 6C106.969 6 109.174 8.50765 109.174 11.3015V12.6985C109.174 15.4419 106.969 18 103.351 18ZM120.835 17.5961L114.557 10.5104L113.749 9.46715V17.5961H111.746V6.38703H113.614L119.69 13.4896L120.515 14.5329V6.38703H122.501V17.5961H120.835ZM131.49 13.1024V17.596H129.47V13.0854L124.421 6.38732H126.778L130.564 11.571L134.149 6.38732H136.472L131.49 13.1024Z" fill="#000028"/>
	<path fill-rule="evenodd" clip-rule="evenodd" d="M16.9412 8.11765V3.89718C16.9412 3.03282 16.4735 2.22035 15.7211 1.77706C14.5945 1.11318 12.1542 0 8.47059 0C4.78694 0 2.34671 1.11318 1.22012 1.77706C0.467647 2.22035 0 3.03282 0 3.89718V10.2353L13.4118 14.1176V16.9412C13.4118 17.3234 13.1718 17.5913 12.7638 17.7904L8.47059 19.9412L4.15518 17.7794C3.76941 17.5913 3.52941 17.3234 3.52941 16.9412V14.8235L0 13.7647V16.9412C0 18.6851 1.00024 20.1688 2.58847 20.9418L8.47059 24L14.3308 20.9527C15.9409 20.1688 16.9412 18.6851 16.9412 16.9412V11.6471L3.52941 7.76471V4.542C4.48765 4.07965 6.12141 3.52941 8.47059 3.52941C10.8198 3.52941 12.4535 4.07965 13.4118 4.542V7.05882L16.9412 8.11765Z" fill="#0098FF"/>
	</svg>