<?xml version="1.0" encoding="utf-8"?>
<!-- Generator: Adobe Illustrator 21.0.0, SVG Export Plug-In . SVG Version: 6.00 Build 0)  -->
<!DOCTYPE svg PUBLIC "-//W3C//DTD SVG 1.1//EN" "http://www.w3.org/Graphics/SVG/1.1/DTD/svg11.dtd">
<svg version="1.1" id="Calque_1" xmlns="http://www.w3.org/2000/svg" xmlns:xlink="http://www.w3.org/1999/xlink" x="0px" y="0px"
	 viewBox="0 0 841.9 221" enable-background="new 0 0 841.9 221" xml:space="preserve">
<g>
	<g>
		<path fill="#0F0F0F" d="M743.4,59.1L743.4,59.1L743.4,59.1z"/>
		<path fill="#0F0F0F" d="M746.8,108c-2.4-0.3-4.3-0.9-5.6-2c-6.7-5.9-4.2-32.2,2.2-46.9l0,0l0,0c0.5-1.2,1.1-2.4,1.7-3.4
			c4.2-8.1,9.2-13.6,12.8-15.7c-15.5,8.4-37.5,49.3-31,61.2c0.6,1,1.4,1.9,2.4,2.7l0,0C732.4,106.1,739.5,107.7,746.8,108z"/>
		<g>
			<path fill="#0F0F0F" d="M790.3,74.2L790.3,74.2L790.3,74.2L790.3,74.2z"/>
			<path fill="#0F0F0F" d="M792.2,77c2.3,3.6,3.4,6.8,3,9.4c-1.9,10.3-33.7,23.3-48.4,21.7c-7.3-0.3-14.4-1.9-17.5-4.2l0,0
				c13.1,10.4,62.6,9.4,69.7-2.7c0.7-1.1,1-2.6,1.2-4.2C800.5,91.3,796,82.7,792.2,77z"/>
		</g>
		<path fill="#0F0F0F" d="M762.9,38.4c-1.6,0-3.3,0.5-5.1,1.5c-3.6,2.1-8.6,7.7-12.8,15.7c1.8-3.3,3.9-5.6,6.1-6.4
			c8.3-3,29.5,12,39.2,24.9l0,0l0,0c0.7,0.9,1.3,1.8,1.9,2.7c3.8,5.7,8.4,14.3,8,19.9C801.8,79.7,776.7,38.4,762.9,38.4z"/>
		<g>
			<path fill="#0F0F0F" d="M743.4,59.1c0.5-1.2,1.1-2.4,1.7-3.4c4.2-8.1,9.1-13.6,12.8-15.7c-2,1.1-4.1,2.7-6.2,4.7
				c-2.5,2.8-5.1,6.5-7.5,11.1c-0.6,1-1.1,2.2-1.7,3.4l0,0c-6.4,14.7-8.9,41-2.2,46.9c1.2,1,2.9,1.7,5.1,2c0.5,0,0.9,0,1.4,0.1
				c-2.4-0.3-4.3-0.9-5.6-2C734.4,100.1,737,73.8,743.4,59.1L743.4,59.1z"/>
		</g>
		<path fill="#0F0F0F" d="M799.7,89.9c-1.6-5.1-4.2-9.7-7.2-14.1c-2.9-4.4-6.5-8.3-10.4-11.9c-3.9-3.7-8.1-7-12.7-9.9
			c-2.3-1.5-4.7-2.8-7.3-4c-2.4-1.1-5.1-2-7.8-2.2c-2-0.1-4,0.7-5.5,2c-1.7,1.6-2.9,3.7-3.9,5.7c1.1-2,2.4-4.1,4.4-5.5
			c2.1-1.4,4.7-1.5,7.2-1c2.6,0.6,5.1,1.7,7.5,2.9c2.5,1.3,4.8,2.7,7.1,4.3c8.1,5.6,15.5,12.4,21,20.6c1.5,2.2,2.8,4.5,4,6.9
			c1.2,2.4,2.4,4.9,3.2,7.5c0.7,2.4,1.1,5,0.4,7.4c-0.6,2.4-2.3,4.2-4.3,5.5c-4.3,2.8-9.5,4.1-14.5,5c-5.6,1-11.2,1.4-16.9,1.5
			c-5,0.1-9.9-0.2-14.9-0.8c-4.8-0.6-9.6-1.5-14.2-3.3c0.1,0,0.2,0.1,0.3,0.1c-2.1-0.8-4.1-1.8-6-3.2c5.7,6,25.9,7.8,31.6,7.9
			c5.8,0.1,11.7,0,17.4-0.8c5.3-0.7,10.6-1.8,15.4-4.2c2.8-1.4,5.5-3.3,6.7-6.3C801.8,97.2,800.8,93.1,799.7,89.9"/>
	</g>
	<g>
		<g>
			<path fill="#0F0F0F" d="M99.6,112.8h-1.4c-1.8-10.7-8-18.4-19.4-18.4c-17.3,0-27.1,14.2-27.1,30.5c0,18.6,14.3,31.6,28,31.6
				c12.4,0,17.3-9.1,21.6-19.3l1.3,0.6c-1.1,5.8-2.9,11.5-5.2,16.9c-6.1,2.9-12.6,4.1-19.3,4.1c-19.8,0-37.4-11.4-37.4-32.7
				c0-16.8,13.2-33.9,38.1-33.9c7.2,0,14.5,1.4,20.7,5.1L99.6,112.8L99.6,112.8z"/>
			<path fill="#0F0F0F" d="M112.6,126.3c0-10.1-0.3-11.7-7.8-12.3v-1l16.2-0.5c16.7-0.5,18,7.6,18,10.8c0,5.6-3.4,8.7-8.2,10.9
				l0.3,0.5c5.1,8.9,11.5,20.3,22.4,22.6l-0.2,1c-7-0.3-12.2-0.1-16-4.1c-4.4-4.6-7.8-10.4-9.2-13.2c-2.7-5.5-5-3.9-9.7-4.7V147
				c0,7.3,0.1,8.6,9.2,9.9v1h-23.2v-1c7.9-1.1,8-3,8.2-9.9C112.6,147,112.6,126.3,112.6,126.3z M118.4,135c6.4-0.1,13.8-3,13.8-10.3
				c0-7.7-6.8-10.9-13.8-10.8C118.4,113.9,118.4,135,118.4,135z"/>
			<path fill="#0F0F0F" d="M197.6,135.2c0,14.2-10.3,23.3-24.2,23.3c-14,0-24.2-9.1-24.2-23.4c0-14.1,10.3-23.2,24.2-23.2
				C190.3,111.9,197.6,123.4,197.6,135.2z M156.8,133.5c0,10.3,5.4,23.4,17.4,23.4c10.9,0,15.8-11.1,15.8-20.6
				c-0.2-11.7-7-22.9-17.2-22.9C161.4,113.4,156.8,124.6,156.8,133.5z"/>
			<path fill="#0F0F0F" d="M227.2,124.3h-1.1c-1.1-5.4-2.8-10.5-9.3-10.5c-4.2,0-7.8,2.9-7.8,7.3c0,11.5,20.9,11.1,20.9,24.4
				c0,8.5-8.5,13-16.1,13c-4,0-8.3-1.2-11.7-3.4l-1.9-11.3h1.2c1.7,6.4,6.1,12.7,13.4,12.7c4.9,0,8.7-2.9,8.7-8.1
				c0-11.8-20.3-10.7-20.3-24c0-7.8,7.7-12.7,14.8-12.7c3.4,0,6.8,1,9.7,2.6L227.2,124.3z"/>
			<path fill="#0F0F0F" d="M261.3,124.3h-1.1c-1.1-5.4-2.8-10.5-9.3-10.5c-4.2,0-7.7,2.9-7.7,7.3c0,11.5,20.9,11.1,20.9,24.4
				c0,8.5-8.5,13-16.1,13c-4,0-8.3-1.2-11.7-3.4l-1.9-11.3h1.2c1.7,6.4,6.1,12.7,13.4,12.7c4.9,0,8.7-2.9,8.7-8.1
				c0-11.8-20.3-10.7-20.3-24c0-7.8,7.7-12.7,14.8-12.7c3.4,0,6.8,1,9.7,2.6L261.3,124.3z"/>
			<path fill="#0F0F0F" d="M433.6,135.2c0,14.2-10.3,23.3-24.2,23.3c-14,0-24.2-9.1-24.2-23.4c0-14.1,10.3-23.2,24.2-23.2
				C426.3,111.9,433.6,123.4,433.6,135.2z M392.8,133.5c0,10.3,5.4,23.4,17.4,23.4c10.9,0,15.8-11.1,15.8-20.6
				c-0.2-11.7-7-22.9-17.2-22.9C397.4,113.4,392.8,124.6,392.8,133.5z"/>
			<path fill="#0F0F0F" d="M451.1,159.2h-0.7l-10.8-37c-1.7-4.8-1.9-7-7.4-8.5v-1H451v1c-8.1,1.2-6.4,4.6-4.8,10l7,23.5l10.4-27.7
				c-1.3-4-3.5-5.1-7.5-5.8v-1h19.3v1c-7.2,1-6.4,4.1-5.2,7.9l8.4,26.2l5.2-14.9c1.1-3.3,4.1-11.6,4.1-14.8c0-3.2-3-3.7-6.6-4.5v-1
				h17.3v1c-4,0.3-6,2.5-7.4,6l-4.6,12.7l-9.7,26.9h-0.7l-11.8-36.8L451.1,159.2z"/>
			<path fill="#0F0F0F" d="M500.3,156.7c8-1.1,8-3,8.2-9.9v-23.3c-0.2-6.8-0.3-8.8-8.2-9.9v-1h22.3v1c-7.9,1.1-8.2,3-8.2,9.9v21.7
				c0,3.3,0,6.8,1,10l8.1,0.6c10.1,0.7,11.7-2.4,16.8-10.9l0.9,0.4l-3.8,12.3h-37L500.3,156.7L500.3,156.7z"/>
			<path fill="#0F0F0F" d="M540.7,156.7c7.9-1.1,8-3,8.2-9.9v-23.3c-0.2-6.8-0.3-8.8-8.2-9.9v-1h35.6l-0.8,10.2h-1
				c-0.5-8.5-6.6-8.6-13.3-8.6h-6.4v18.9h6.9c5,0,8.7-0.4,9.5-6.1h1v14.8h-1c-0.9-5.8-4.5-5.9-9.5-5.9h-6.9v10.9
				c0,3.9-0.9,9.3,9.9,9.3c8.3,0,12.5-3.2,14.1-11.5h1c-0.1,5-0.9,9.1-2.3,13.1h-36.8V156.7z"/>
			<path fill="#0F0F0F" d="M584.6,113l16-0.5c29.1-0.9,32.2,15.9,32.2,22.8c0,9.5-6.1,22.7-28.9,22.5l-19.7-0.1v-1
				c7.9-1.1,8-3,8.2-9.9v-23c-0.2-6.8-0.3-8.8-7.8-9.9V113z M598.3,147.5c0,4.4,0.8,8.7,9,8.7c7.6,0,17.9-4.8,17.9-19.9
				c0-15.9-12.5-22.5-26.9-22.5V147.5z"/>
			<path fill="#0F0F0F" d="M682.5,152.6v1c-7.1,3-12.5,4.9-20,4.9c-13.6,0-25.2-8.3-25.2-22.8c0-14.7,12.9-23.8,26.7-23.8
				c5.2,0,10.5,0.9,15.5,2.6l-0.3,11.5h-0.9c-1.7-7.7-7-12.5-15-12.5c-11.5,0-18.4,8.7-18.4,19.8c0,13.1,9.3,23,22.5,23
				c6,0,6-1.6,6-5.9v-4c0-7.4-1.9-8.1-8.9-9v-1h19.6v1c-4.6,0.9-4.8,2.8-4.8,6.9v8.3H682.5z"/>
			<path fill="#0F0F0F" d="M686.7,156.7c7.9-1.1,8-3,8.2-9.9v-23.3c-0.2-6.8-0.3-8.8-8.2-9.9v-1h35.6l-0.8,10.2h-1
				c-0.5-8.5-6.6-8.6-13.3-8.6h-6.4v18.9h6.9c5,0,8.8-0.4,9.5-6.1h1v14.8h-1c-0.9-5.8-4.5-5.9-9.5-5.9h-6.9v10.9
				c0,3.9-0.9,9.3,9.9,9.3c8.4,0,12.4-3.2,14.1-11.5h1c-0.1,5-0.9,9.1-2.3,13.1h-36.8V156.7z"/>
		</g>
		<g>
			<path fill="#0F0F0F" d="M284.7,141.8c0.3,9.8,0.4,12.8,12.6,14.3v1.2h-32.6v-1.2c11.4-1.5,11.5-4.6,11.7-14.3v-33.3
				c-0.3-9.7-0.4-12.8-11.7-14.3V93h30.1v1.2c-9.7,1.5-9.8,4.6-10,14.3v33.3H284.7z M327.5,93v1.2c-10.8,1.1-18,10.6-25,17.8
				l-8.9,9.5l19.2,21.2c5.8,6.3,12.7,11.4,21.1,13.8l-1.3,1c-16.5-1.3-18.4-0.8-27.3-10.5L286,126l15.2-16.6
				c9.9-11.2,8-14.5,1.7-15.2V93H327.5z"/>
		</g>
		<g>
			<path fill="#0F0F0F" d="M340.8,126.9c0-4.2,0.4-9-5.3-9v-1l11.8-4.4l0.7,0.4l-0.8,7.3c5.7-4.2,11.5-7.7,17.9-7.7
				c11.9,0,12.1,9.8,12.1,15.7v18.2c0,8.1,0.9,8.9,8.2,10v1h-23.2v-1c7.4-1.1,8-2.3,8.1-10v-11.9c0-7,0-17.6-12.1-17.6
				c-4.1,0-7.3,1.7-10.5,4.7v24.8c0,8.1,0.8,8.9,8.2,10l-0.8,1.1h-22.4v-1.1c7.4-1.1,8.1-2.3,8.2-10v-19.5H340.8z"/>
		</g>
	</g>
	<path fill="#0F0F0F" d="M486.6,172.9c0,0,0.4,0.2,0.9,0C487.4,173,487.4,173.6,486.6,172.9z"/>
	<g>
		<path fill="#0F0F0F" d="M511.4,167h4.6l9.5,24.7h-4.6l-2.3-6.5h-9.9l-2.3,6.5h-4.5L511.4,167z M509.9,181.9h7.6l-3.7-10.6h-0.1
			L509.9,181.9z"/>
		<path fill="#0F0F0F" d="M535.1,167h4.4l4.5,18.9h0.1l5-18.9h4.4l4.9,18.9h0.1L563,167h4.4l-6.8,24.7h-4.4l-5-18.9h-0.1l-5.1,18.9
			h-4.5L535.1,167z"/>
		<path fill="#0F0F0F" d="M569.8,167h4v3.7h-4V167z M569.8,173.8h4v17.9h-4V173.8z"/>
		<path fill="#0F0F0F" d="M578.1,167h4v24.7h-4V167z"/>
		<path fill="#0F0F0F" d="M589.5,183.8c0,0.7,0.1,1.4,0.3,2s0.5,1.2,0.9,1.7s0.9,0.9,1.5,1.2c0.6,0.3,1.3,0.4,2.1,0.4
			c1.2,0,2.1-0.2,2.8-0.7s1.2-1.2,1.6-2.2h3.7c-0.2,1-0.6,1.8-1.1,2.6s-1.1,1.4-1.8,1.9s-1.5,0.9-2.4,1.2c-0.9,0.3-1.8,0.4-2.8,0.4
			c-1.4,0-2.7-0.2-3.7-0.7c-1.1-0.5-2-1.1-2.8-1.9s-1.3-1.8-1.7-3s-0.6-2.4-0.6-3.8c0-1.3,0.2-2.5,0.6-3.6s1-2.1,1.7-3
			s1.7-1.6,2.7-2.1c1.1-0.5,2.3-0.8,3.6-0.8c1.4,0,2.7,0.3,3.8,0.9s2,1.4,2.8,2.3c0.7,1,1.3,2.1,1.6,3.3c0.3,1.3,0.4,2.6,0.3,3.9
			L589.5,183.8L589.5,183.8z M598.7,181.2c0-0.6-0.2-1.2-0.4-1.8c-0.2-0.6-0.5-1.1-0.9-1.5s-0.8-0.8-1.4-1c-0.5-0.3-1.1-0.4-1.8-0.4
			s-1.3,0.1-1.9,0.4c-0.6,0.2-1.1,0.6-1.5,1s-0.7,0.9-1,1.5c-0.2,0.6-0.4,1.2-0.4,1.9h9.3V181.2z"/>
		<path fill="#0F0F0F" d="M603.7,173.8h4.3l4.7,13.4h0.1l4.5-13.4h4.1l-7,18.9c-0.3,0.8-0.6,1.6-1,2.3c-0.3,0.7-0.7,1.4-1.1,2
			c-0.5,0.6-1,1-1.7,1.4c-0.7,0.3-1.5,0.5-2.6,0.5c-0.9,0-1.8-0.1-2.7-0.2v-3.3c0.3,0,0.6,0.1,0.9,0.2c0.3,0.1,0.6,0.1,0.9,0.1
			c0.5,0,0.8-0.1,1.1-0.2s0.5-0.3,0.7-0.5s0.4-0.5,0.5-0.8s0.3-0.6,0.4-1l0.5-1.4L603.7,173.8z"/>
		<path fill="#0F0F0F" d="M633.8,167h12c2.2,0,4,0.5,5.3,1.5s2,2.6,2,4.6c0,1.2-0.3,2.3-0.9,3.2c-0.6,0.9-1.5,1.6-2.6,2.1v0.1
			c1.5,0.3,2.7,1,3.5,2.2c0.8,1.1,1.2,2.5,1.2,4.2c0,1-0.2,1.9-0.5,2.7c-0.3,0.8-0.9,1.6-1.6,2.2c-0.7,0.6-1.7,1.1-2.8,1.5
			c-1.2,0.4-2.5,0.5-4.1,0.5h-11.4V167H633.8z M638.2,177.4h7.1c1,0,1.9-0.3,2.6-0.9c0.7-0.6,1-1.4,1-2.5c0-1.2-0.3-2.1-0.9-2.6
			c-0.6-0.5-1.5-0.8-2.7-0.8h-7.1L638.2,177.4L638.2,177.4z M638.2,188.2h7.7c1.3,0,2.3-0.3,3.1-1c0.7-0.7,1.1-1.6,1.1-2.9
			c0-1.2-0.4-2.2-1.1-2.8c-0.7-0.7-1.8-1-3.1-1h-7.7V188.2z"/>
		<path fill="#0F0F0F" d="M657.7,173.8h3.7v3.5h0.1c0.1-0.5,0.3-1,0.7-1.4c0.3-0.5,0.7-0.9,1.2-1.3s1-0.7,1.6-0.9
			c0.6-0.2,1.2-0.3,1.8-0.3c0.5,0,0.8,0,1,0s0.4,0,0.5,0.1v3.8c-0.3,0-0.6-0.1-0.8-0.1c-0.3,0-0.6-0.1-0.8-0.1
			c-0.7,0-1.3,0.1-1.9,0.4c-0.6,0.3-1.1,0.7-1.5,1.2s-0.8,1.2-1,1.9c-0.3,0.8-0.4,1.6-0.4,2.6v8.5h-4v-17.9H657.7z"/>
		<path fill="#0F0F0F" d="M684.9,187.8c0,0.5,0.1,0.8,0.2,1c0.1,0.2,0.4,0.3,0.7,0.3c0.1,0,0.3,0,0.4,0c0.2,0,0.3,0,0.6-0.1v2.7
			c-0.1,0-0.3,0.1-0.5,0.2s-0.4,0.1-0.7,0.2c-0.2,0-0.5,0.1-0.7,0.1s-0.4,0-0.6,0c-0.8,0-1.5-0.2-2-0.5s-0.9-0.9-1-1.7
			c-0.8,0.8-1.7,1.3-2.9,1.7c-1.1,0.3-2.2,0.5-3.3,0.5c-0.8,0-1.6-0.1-2.3-0.3c-0.7-0.2-1.4-0.5-2-1c-0.6-0.4-1-1-1.4-1.6
			c-0.3-0.7-0.5-1.4-0.5-2.3c0-1.1,0.2-2,0.6-2.7c0.4-0.7,0.9-1.2,1.6-1.6c0.7-0.4,1.4-0.7,2.2-0.8c0.8-0.2,1.6-0.3,2.5-0.4
			c0.7-0.1,1.4-0.2,2-0.3c0.6-0.1,1.2-0.2,1.7-0.3c0.5-0.1,0.9-0.4,1.2-0.6c0.3-0.3,0.4-0.7,0.4-1.3c0-0.5-0.1-0.9-0.4-1.2
			c-0.2-0.3-0.5-0.6-0.9-0.7c-0.4-0.2-0.8-0.3-1.2-0.3s-0.9-0.1-1.2-0.1c-1.1,0-2,0.2-2.7,0.7s-1.1,1.2-1.2,2.1h-4
			c0.1-1.2,0.3-2.1,0.8-2.9s1.1-1.4,1.9-1.8c0.8-0.5,1.6-0.8,2.5-1s1.9-0.3,2.9-0.3c0.9,0,1.7,0.1,2.6,0.3c0.9,0.2,1.6,0.5,2.3,0.9
			s1.2,1,1.6,1.6c0.4,0.7,0.6,1.5,0.6,2.4v9.1H684.9z M680.9,182.8c-0.6,0.4-1.3,0.6-2.2,0.7s-1.8,0.2-2.6,0.4
			c-0.4,0.1-0.8,0.2-1.2,0.3c-0.4,0.1-0.7,0.3-1,0.5s-0.5,0.5-0.7,0.9s-0.3,0.8-0.3,1.3c0,0.4,0.1,0.8,0.4,1.1
			c0.3,0.3,0.6,0.5,0.9,0.7c0.4,0.2,0.8,0.3,1.2,0.4s0.8,0.1,1.2,0.1s0.9-0.1,1.4-0.2s1-0.3,1.4-0.6c0.5-0.3,0.8-0.6,1.1-1.1
			c0.3-0.4,0.5-1,0.5-1.6v-2.9H680.9z"/>
		<path fill="#0F0F0F" d="M689.1,173.8h3.7v2.6l0.1,0.1c0.6-1,1.4-1.8,2.4-2.3c1-0.6,2-0.8,3.2-0.8c2,0,3.5,0.5,4.6,1.5
			s1.7,2.5,1.7,4.6v12.3h-4v-11.3c0-1.4-0.3-2.4-0.9-3.1c-0.6-0.6-1.4-1-2.6-1c-0.7,0-1.3,0.1-1.8,0.4c-0.5,0.2-1,0.6-1.4,1
			s-0.7,0.9-0.9,1.5s-0.3,1.2-0.3,1.8v10.6h-4v-17.9H689.1z"/>
		<path fill="#0F0F0F" d="M725.9,191.8h-3.7v-2.4h-0.1c-0.5,1-1.3,1.8-2.3,2.2c-1,0.5-2.1,0.7-3.2,0.7c-1.4,0-2.6-0.2-3.7-0.7
			c-1.1-0.5-1.9-1.2-2.6-2c-0.7-0.9-1.2-1.9-1.6-3c-0.3-1.2-0.5-2.4-0.5-3.8c0-1.6,0.2-3,0.7-4.2c0.4-1.2,1-2.1,1.7-2.9
			s1.6-1.3,2.5-1.7c0.9-0.4,1.9-0.5,2.9-0.5c0.6,0,1.1,0.1,1.7,0.2c0.6,0.1,1.1,0.3,1.7,0.5c0.5,0.2,1,0.5,1.5,0.9s0.8,0.8,1.1,1.3
			h0.1V167h4v24.8H725.9z M712.1,183c0,0.8,0.1,1.5,0.3,2.3c0.2,0.7,0.5,1.4,0.9,2s0.9,1,1.5,1.4c0.6,0.3,1.4,0.5,2.2,0.5
			c0.9,0,1.6-0.2,2.3-0.6c0.6-0.4,1.2-0.9,1.6-1.5c0.4-0.6,0.7-1.3,0.9-2c0.2-0.8,0.3-1.5,0.3-2.3c0-2-0.4-3.5-1.3-4.6
			c-0.9-1.1-2.1-1.7-3.6-1.7c-0.9,0-1.7,0.2-2.3,0.6s-1.2,0.9-1.6,1.5c-0.4,0.6-0.7,1.3-0.9,2.1C712.2,181.4,712.1,182.2,712.1,183z
			"/>
	</g>
</g>
</svg>
