<svg xmlns:svg="http://www.w3.org/2000/svg" xmlns="http://www.w3.org/2000/svg" viewBox="0 0 471 159.7" xml:space="preserve" id="svg29" version="1.1"><style type="text/css">.layer1 { fill: #c6168d; } .layer2 { fill: #231f20; } .layer3 { fill:#585a5e }</style><g transform="matrix(1.3333333,0,0,-1.3333333,-162.7204,721.72852)" id="layer3" class="layer3"><g id="g287"><g transform="translate(132.4653,431.5903)" id="g47"><path id="path49" d="M0 0H8.2V-9.6H6.3l-0.4 2.6c-1.2-1.4-3.1-3-6.8-3-7.1 0-9.4 5.2-9.4 9.1 0 6.9 4.7 9.7 9.4 9.7C2.6 8.7 6.8 7.5 7.9 2.6H5.1c-0.8 2.5-2.7 3.8-6 3.8-4.7 0-6.8-3.3-6.8-7.1 0-5 3.2-7 7-7 3.9 0 6.4 2.3 6.7 5.5L0-2.3Z"/></g><g transform="translate(156.5151,429.7153)" id="g51"><path id="path53" d="m0 0c-0.4 2.4-2.2 3.7-4.6 3.7-2.3 0-4.4-1.3-4.7-3.7zm-9.4-1.9c0.2-2.7 2.6-4.1 4.8-4.1 1.4 0 3.4 0.5 4.2 2.3H2.3C1.1-6.9-1.9-8.2-4.4-8.2c-5.1 0-7.6 3.2-7.6 7 0 3.8 2.5 7 7.6 7 3.5 0 7.1-2 7.1-7.4V-1.9Z"/></g><g transform="translate(163.8149,439.0903)" id="g55"><path id="path57" d="m0 0h2.5v-4h3.8v-1.9H2.5v-8.1c0-1 0.8-1.4 2-1.4 0.6 0 1.2 0.1 1.7 0.2v-2.1c-0.8-0.1-1.8-0.2-2.8-0.2-2.4 0-3.4 1.2-3.4 3.1v8.5h-2.7v2H0Z"/></g><path id="path59" d="m182.3 435.1h2.5v-13.1h-2.5zm0 4.9h2.5v-2.7h-2.5z"/><g transform="translate(188.8647,435.0654)" id="g61"><path id="path63" d="M0 0H2.5V-2H2.6C3.7-0.1 5.8 0.5 7.7 0.5c3.2 0 5.5-1.3 5.5-4.6V-13.1h-2.5v8.4c0 1.9-1.2 3-3.9 3-2.3 0-4.3-1.3-4.3-3.9V-13.1H0Z"/></g><g transform="translate(206.0894,435.0654)" id="g65"><path id="path67" d="M0 0H2.5V-2H2.6C3.7-0.1 5.8 0.5 7.7 0.5c3.2 0 5.5-1.3 5.5-4.6V-13.1h-2.5v8.4c0 1.9-1.2 3-3.9 3-2.3 0-4.3-1.3-4.3-3.9V-13.1H0Z"/></g><g transform="translate(230.3389,433.4155)" id="g69"><path id="path71" d="m0 0c-3.6 0-4.9-2.5-4.9-4.9 0-2.4 1.3-4.9 5-4.9 3.6 0 5 2.5 5 4.9C5-2.5 3.6 0 0 0m0 2.1c5.1 0 7.6-3.2 7.6-7 0-3.8-2.5-7-7.6-7-5.1 0-7.6 3.2-7.6 7 0 3.8 2.5 7 7.6 7"/></g><g transform="translate(251.5635,435.0654)" id="g73"><path id="path75" d="M0 0H2.8L-3.1-13.1H-5.8L-11.8 0h2.9l4.5-10.3z"/></g><g transform="translate(266.9131,428.8154)" id="g77"><path id="path79" d="m0 0c-0.4-0.4-1-0.6-2.4-0.8l-2.8-0.3c-1.9-0.2-3-0.8-3-2.1 0-1.2 1.2-2.1 3.1-2.1 2.8 0 5.2 1.5 5.2 3.7zM-10.2 2.2C-9.8 5.4-7.6 6.7-3.7 6.7-1 6.7 2.4 6 2.4 3v-7C2.4-4.8 2.7-5.2 3.5-5.2 3.8-5.2 4.1-5.1 4.4-5.1V-6.8C3.8-6.9 3-7 2.4-7 1.2-7 0.3-6.6 0.2-5.2-0.8-6.5-3.3-7.3-5.4-7.3c-4.3 0-5.3 2.3-5.3 4 0 2.4 1.4 3.6 5.6 4.1l2.9 0.3C-0.9 1.2 0 1.4 0 2.6c0 1.8-1.7 2.2-3.8 2.2-2.1 0-4-0.6-4-2.6z"/></g><g transform="translate(275.063,439.0903)" id="g81"><path id="path83" d="m0 0h2.5v-4h3.8v-1.9H2.5v-8.1c0-1 0.8-1.4 2-1.4 0.6 0 1.2 0.1 1.7 0.2v-2.1c-0.8-0.1-1.8-0.2-2.8-0.2-2.4 0-3.4 1.2-3.4 3.1v8.5h-2.7v2H0Z"/></g><path id="path85" d="m284.2 435.1h2.5v-13.1h-2.5zm0 4.9h2.5v-2.7h-2.5z"/><g transform="translate(297.7876,433.4155)" id="g87"><path id="path89" d="m0 0c-3.6 0-4.9-2.5-4.9-4.9 0-2.4 1.3-4.9 5-4.9 3.6 0 5 2.5 5 4.9C5-2.5 3.6 0 0 0m0 2.1c5.1 0 7.6-3.2 7.6-7 0-3.8-2.5-7-7.6-7-5.1 0-7.6 3.2-7.6 7 0 3.8 2.5 7 7.6 7"/></g><g transform="translate(308.8623,435.0654)" id="g91"><path id="path93" d="M0 0H2.5V-2H2.6C3.7-0.1 5.8 0.5 7.7 0.5c3.2 0 5.5-1.3 5.5-4.6V-13.1h-2.5v8.4c0 1.9-1.2 3-3.9 3-2.3 0-4.3-1.3-4.3-3.9V-13.1H0Z"/></g><g transform="translate(336.5371,439.0903)" id="g95"><path id="path97" d="m0 0h2.5v-4h3.8v-1.9H2.5v-8.1c0-1 0.8-1.4 2-1.4 0.6 0 1.2 0.1 1.7 0.2v-2.1c-0.8-0.1-1.8-0.2-2.8-0.2-2.4 0-3.4 1.2-3.4 3.1v8.5h-2.7v2H0Z"/></g><g transform="translate(352.7119,433.4155)" id="g99"><path id="path101" d="m0 0c-3.6 0-4.9-2.5-4.9-4.9 0-2.4 1.3-4.9 5-4.9 3.6 0 5 2.5 5 4.9C5-2.5 3.6 0 0 0m0 2.1c5.1 0 7.6-3.2 7.6-7 0-3.8-2.5-7-7.6-7-5.1 0-7.6 3.2-7.6 7 0 3.8 2.5 7 7.6 7"/></g><g transform="translate(393.0361,430.2905)" id="g103"><path id="path105" d="M0 0C0 2.4-1.5 3.1-3.1 3.1-5.4 3.1-7.4 2.1-7.4-0.4v-7.9h-2.5V0c0 2.4-1.5 3.1-3.1 3.1-2.3 0-4.3-1.3-4.3-3.9v-7.5h-2.5v13.1h2.5V2.8h0c1.2 1.8 3.3 2.4 5.1 2.4 1.7 0 3.4-0.7 4.5-2.4 1.2 1.5 2.8 2.4 5.3 2.4C-1.1 5.2 2.5 4.6 2.5 0.6V-8.3H0Z"/></g><g transform="translate(409.7363,428.8154)" id="g107"><path id="path109" d="m0 0c-0.4-0.4-1-0.6-2.4-0.8l-2.8-0.3c-2-0.2-3-0.8-3-2.1 0-1.2 1.2-2.1 3.1-2.1 2.8 0 5.2 1.5 5.2 3.7zM-10.2 2.2C-9.8 5.4-7.6 6.7-3.7 6.7-1 6.7 2.4 6 2.4 3v-7C2.4-4.8 2.7-5.2 3.5-5.2c0.3 0 0.6 0.1 0.9 0.1V-6.8C3.8-6.9 3-7 2.4-7 1.2-7 0.3-6.6 0.2-5.2-0.8-6.5-3.3-7.3-5.4-7.3c-4.3 0-5.3 2.3-5.3 4 0 2.4 1.4 3.6 5.6 4.1l2.9 0.3C-0.9 1.2 0 1.4 0 2.6 0 4.4-1.7 4.8-3.8 4.8-5.9 4.8-7.7 4.2-7.8 2.2Z"/></g><g transform="translate(416.7871,435.0654)" id="g111"><path id="path113" d="M0 0H2.5V-2.4H2.6C3.7-0.3 5.4 0.5 7.1 0.5 7.7 0.5 8 0.4 8.5 0.3V-2.4C7.9-2.2 7.4-2.1 6.7-2.1 4.2-2.1 2.5-3.6 2.5-6.4V-13.1H0Z"/></g><g transform="translate(437.3115,435.0654)" id="g115"><path id="path117" d="M0 0H3.8L-2.3-4.9 4.3-13.1h-3.4l-5.2 6.6-2.3-1.8V-13.1h-2.5v18h2.5V-5.6Z"/></g><g transform="translate(455.2607,429.7153)" id="g119"><path id="path121" d="m0 0c-0.4 2.4-2.2 3.7-4.6 3.7-2.3 0-4.4-1.3-4.7-3.7zm-9.4-1.9c0.2-2.7 2.6-4.1 4.8-4.1 1.4 0 3.4 0.5 4.2 2.3H2.3C1.1-6.9-1.9-8.2-4.4-8.2c-5.1 0-7.6 3.2-7.6 7 0 3.8 2.5 7 7.6 7 3.5 0 7.1-2 7.1-7.4V-1.9Z"/></g><g transform="translate(462.5605,439.0903)" id="g123"><path id="path125" d="m0 0h2.5v-4h3.8v-1.9H2.5v-8.1c0-1 0.8-1.4 2-1.4 0.6 0 1.2 0.1 1.7 0.2v-2.1c-0.8-0.1-1.8-0.2-2.8-0.2-2.4 0-3.4 1.2-3.4 3.1v8.5h-2.7v2H0Z"/></g></g></g><g transform="matrix(1.3333333,0,0,-1.3333333,-162.7204,721.72852)" id="layer2" class="layer2"><g id="g245"><g transform="translate(136.563,495.7246)" id="g127"><path id="path129" d="m0 0c-2.3 0-4-0.5-4.9-0.8v-20.3l2-0.2C6.5-22 10-17.9 10-10.6 10-3.6 7.1 0 0 0m-2.8-27-2.1 0.2V-47.5h-9.4V2.6c3.3 1.7 8.4 3 14.4 3 13.5 0 19.1-7 19.1-16.3 0-9.5-6.5-17.4-22-16.3"/></g><path id="path131" d="m164.5 507.9h9.3v-59.7h-9.3z"/><g transform="translate(205.418,470.6445)" id="g133"><path id="path135" d="m0 0c-8.7-1.1-14.1-3-14.1-10.4 0-5.3 3.2-7.6 8.6-7.6 2.1 0 4.2 0.5 5.5 1.1zm-6.2-23.2c-11.2 0-16.7 4.6-16.7 12.5 0 10.8 10.4 13.9 22.9 15.1v2.2c0 5.3-3.3 6.8-8.1 6.8-4 0-7.8-1.3-10.3-2.5l-2.1 5.3c2.7 1.3 7.6 3.1 14.1 3.1 8.4 0 15.1-3.6 15.1-14.1V-20.2C5.4-22 0.2-23.2-6.2-23.2"/></g><g transform="translate(247.5225,448.2246)" id="g137"><path id="path139" d="m0 0v29c0 3.3-1.5 6.8-7.4 6.8-3 0-4.6-0.5-6.4-1.1V0h-9.3v38.8c3.9 1.8 9.1 3 16 3 12.2 0 16.3-5.9 16.3-12.5L9.3 0Z"/></g><path id="path141" d="m267.5 489.2h9.3v-41h-9.3z"/><g transform="translate(296.313,447.5405)" id="g143"><path id="path145" d="m0 0c-4.8 0-8.9 1.3-11.3 3l2.4 5.9c1.5-1.2 4.3-2.4 7.7-2.4 3.8 0 6.3 2.4 6.3 5.8 0 3.5-1.8 5.2-6 6.8-7.8 3-9.3 7.2-9.3 11.5 0 6.5 5.2 11.9 13 11.9 4.6 0 8-1.1 10.6-2.9l-2.3-5.4c-1.2 1-3.6 2.3-6.5 2.3-3.8 0-5.9-2.5-5.9-5.4 0-3.3 2.5-5 6.1-6.5 8-3.2 9.8-7.3 9.8-12.1C14.6 5.8 9 0 0 0"/></g><g transform="translate(360.457,448.2246)" id="g147"><path id="path149" d="m0 0h-8.4l-7.1 25.7c-0.8 2.7-0.8 5.2-0.8 5.2h-0.2c0 0-0.2-2.6-0.9-5.2L-24.5 0h-8.4l-11.4 41h9.3l6-26.5c0.7-3.1 0.8-5.4 0.8-5.4h0.2c0 0 0.2 2.3 1.1 5.4l7.2 26.5h7.8L-5.1 14.4c0.7-2.6 1-5.4 1-5.4h0.2c0 0 0.2 2.8 0.8 5.5L3.2 41H11.4Z"/></g><g transform="translate(398.6836,470.6445)" id="g151"><path id="path153" d="m0 0c-8.7-1.1-14.1-3-14.1-10.4 0-5.3 3.2-7.6 8.6-7.6 2.1 0 4.2 0.5 5.5 1.1zm-6.2-23.2c-11.2 0-16.7 4.6-16.7 12.5 0 10.8 10.4 13.9 22.9 15.1v2.2c0 5.3-3.3 6.8-8.1 6.8-4 0-7.8-1.3-10.3-2.5l-2.1 5.3c2.7 1.3 7.6 3.1 14.1 3.1 8.4 0 15.1-3.6 15.1-14.1V-20.2C5.4-22 0.2-23.2-6.2-23.2"/></g><g transform="translate(435.6953,483.1089)" id="g155"><path id="path157" d="m0 0c-3.1 1.1-6.5 0.9-8.7-0.3v-34.6h-9.3v38.8c4.3 2.1 9.4 3.2 19.8 2.9z"/></g><g transform="translate(458.498,484.2485)" id="g159"><path id="path161" d="m0 0c-5.4 0-9-4.4-8.8-14.2l16.9 2.6C8.1-3.4 5.2 0 0 0m-8.3-18.8c0.8-7.7 4.5-11.5 11.2-11.5 4.7 0 8.1 1.1 10.3 2.3l2.2-5.9c-2.9-1.5-7.3-2.9-13.5-2.9-11.6 0-19 7.5-19 21.4 0 13.4 6.8 21.1 17.5 21.1 10.8 0 16.4-7.1 16.4-19.8v-1.2z"/></g></g></g><g transform="matrix(1.3333333,0,0,-1.3333333,-162.7204,721.72852)" id="layer1" class="layer1"><g id="g163" transform="translate(288.3188,540.8174)"><path d="m0 0c-0.3 0.2-0.7 0.3-1.1 0.5 7.8-4.2 11.7-13.8 10.8-22.9 0.3 7.7-3.9 15.3-11.3 18.8-0.3 0.1-0.6 0.3-0.9 0.4 6.3-3.4 9.7-10.2 9.2-17-1.3 5.2-4.8 9.9-10.1 12.4-0.3 0.1-0.5 0.3-0.8 0.4 0.4-0.2 0.8-0.5 1.2-0.7 2.7-1.6 5-4 6.4-7 3.5-7.8 0-16.9-7.7-20.4-3.5-1.6-7.4-1.7-10.8-0.7l0 0c-0.6 0.3-1.2 0.4-1.9 0.4-2.6 0-4.7-2.1-4.7-4.7 0-2.1 1.4-3.8 3.2-4.4l0-0.1c11.5-3.9 24.4 1.3 29.8 12.6C17.3-20.4 12.2-5.8 0 0" id="path165"/></g></g></svg>