<svg class="logo" width="223" height="42" viewBox="0 0 223 42" xmlns="http://www.w3.org/2000/svg"><g fill="none" fill-rule="evenodd"><g fill="#5BA4FF"><path d="M13.75 8.1H6.076l-.832 3.51h1.952L4.269 24.279l-.018.061-.01.052c-.008.066-.235 1.624-2.593 1.838l-.413.037L0 29.97h.875l.055.003c.192.008.417.015.669.015 1.713 0 4.598-.297 5.661-2.18.406-.717.444-.88.912-2.872l.1-.43 2.822-12.896h1.825l.831-3.512M23.44 20.809c0 .764-.13 1.47-.387 2.102a5.306 5.306 0 0 1-1.015 1.63 4.562 4.562 0 0 1-1.437 1.045 3.927 3.927 0 0 1-1.646.371c-.468 0-.9-.085-1.287-.253a2.863 2.863 0 0 1-.99-.699 3.227 3.227 0 0 1-.646-1.107 4.437 4.437 0 0 1-.238-1.492c0-.747.128-1.441.38-2.063a5.158 5.158 0 0 1 1.007-1.609c.414-.442.894-.79 1.426-1.034a3.905 3.905 0 0 1 1.646-.364c.46 0 .889.081 1.273.241.38.16.716.39.996.685.283.297.508.662.671 1.085.164.427.247.919.247 1.462zm1.766-4.82a6.586 6.586 0 0 0-2.13-1.403 6.917 6.917 0 0 0-2.667-.512c-.75 0-1.487.103-2.193.305a8.366 8.366 0 0 0-3.665 2.177 8.329 8.329 0 0 0-1.311 1.725 8.645 8.645 0 0 0-1.135 4.307c0 .925.167 1.802.497 2.607a6.402 6.402 0 0 0 3.515 3.524c.809.34 1.706.512 2.669.512.76 0 1.504-.102 2.211-.305a8.463 8.463 0 0 0 1.991-.853 8.077 8.077 0 0 0 1.693-1.341 8.804 8.804 0 0 0 1.3-1.733 8.84 8.84 0 0 0 .845-2.048 8.682 8.682 0 0 0 .303-2.298 6.52 6.52 0 0 0-1.923-4.664zM34.355 18.51a5.8 5.8 0 0 1 1.45-.839 4.5 4.5 0 0 1 1.67-.335c.4 0 .77.07 1.104.21.326.135.61.331.843.581.234.253.42.57.554.942.136.384.205.83.205 1.324 0 .882-.148 1.673-.44 2.353a5.523 5.523 0 0 1-1.15 1.737A4.98 4.98 0 0 1 37 25.56a4.603 4.603 0 0 1-1.785.37c-.71 0-1.28-.09-1.696-.27a2.618 2.618 0 0 1-.718-.435l1.553-6.714zm9.032-.735a5.996 5.996 0 0 0-1.216-1.9 5.744 5.744 0 0 0-1.823-1.278 5.521 5.521 0 0 0-2.263-.47c-.982 0-1.947.23-2.88.69l1.637-7.093h-6.088l-.765 3.21h2.498l-4.13 17.973h3.597l.12-.51c.278.159.588.299.93.417.618.217 1.297.326 2.017.326.8 0 1.583-.101 2.328-.302.742-.2 1.447-.49 2.094-.859a8.578 8.578 0 0 0 3.18-3.174 9.061 9.061 0 0 0 .894-2.182c.209-.783.315-1.626.315-2.502 0-.83-.15-1.62-.445-2.346z"></path></g><g fill="#000105"><path d="M62.503 19.628a9.902 9.902 0 0 1-.786 2.155 8.478 8.478 0 0 1-1.227 1.811 8.003 8.003 0 0 1-1.604 1.39 7.33 7.33 0 0 1-4.05 1.2c-.823 0-1.58-.163-2.273-.492a5.407 5.407 0 0 1-1.792-1.364 6.347 6.347 0 0 1-1.175-2.058 7.644 7.644 0 0 1-.422-2.577c0-1.256.212-2.414.636-3.475a8.7 8.7 0 0 1 1.727-2.753 7.883 7.883 0 0 1 2.532-1.811 7.34 7.34 0 0 1 3.052-.65c.822 0 1.579.146 2.272.436.692.29 1.29.705 1.792 1.246a5.79 5.79 0 0 1 1.175 1.955c.28.761.422 1.614.422 2.557 0 .849-.094 1.658-.28 2.43zm.7-9a7.726 7.726 0 0 0-2.635-1.682 8.72 8.72 0 0 0-3.162-.578 11.211 11.211 0 0 0-5.602 1.48 10.805 10.805 0 0 0-4.005 4.051c-.486.858-.862 1.791-1.13 2.8a12.464 12.464 0 0 0-.403 3.214c0 1.35.223 2.573.668 3.668.446 1.096 1.048 2.03 1.805 2.806a8.045 8.045 0 0 0 2.636 1.798c1 .424 2.053.636 3.162.636 1.047 0 2.051-.132 3.012-.396a10.91 10.91 0 0 0 2.681-1.13 10.478 10.478 0 0 0 2.247-1.785 10.873 10.873 0 0 0 1.713-2.364c.472-.874.838-1.83 1.098-2.87.26-1.039.39-2.137.39-3.298 0-1.359-.224-2.573-.67-3.643-.445-1.069-1.047-1.971-1.804-2.707zM79.12 22.939a5.979 5.979 0 0 1-1.252 1.89 5.425 5.425 0 0 1-1.746 1.181 5.065 5.065 0 0 1-1.974.408c-.788 0-1.418-.105-1.89-.318-.471-.211-.82-.46-1.044-.746l1.649-7.13a6.459 6.459 0 0 1 1.707-1.006 4.93 4.93 0 0 1 1.837-.37c.476 0 .909.083 1.299.247.39.164.725.398 1.006.7.281.304.5.675.655 1.111.156.438.234.933.234 1.487 0 .953-.16 1.801-.48 2.546zm1.643-6.727a5.22 5.22 0 0 0-1.675-1.17 5.062 5.062 0 0 0-2.07-.428c-.65 0-1.273.102-1.87.306a7.234 7.234 0 0 0-1.792.928l.182-.883h-5.103l-.532 2.233h2.57l-4.038 17.337h4.895l.507-2.234h-2.22l1.077-4.7c.372.311.846.565 1.422.76a5.748 5.748 0 0 0 1.85.291 8.352 8.352 0 0 0 3.214-.623 8.087 8.087 0 0 0 2.648-1.753 8.32 8.32 0 0 0 1.799-2.7c.441-1.048.662-2.2.662-3.455 0-.77-.137-1.491-.409-2.163a5.483 5.483 0 0 0-1.117-1.746zM96.641 22.939a5.98 5.98 0 0 1-1.253 1.89 5.428 5.428 0 0 1-1.746 1.181 5.064 5.064 0 0 1-1.973.408c-.788 0-1.418-.105-1.89-.318-.472-.211-.82-.46-1.045-.746l1.65-7.13a6.456 6.456 0 0 1 1.707-1.006 4.93 4.93 0 0 1 1.837-.37c.476 0 .908.083 1.298.247.39.164.725.398 1.006.7.282.304.5.675.656 1.111.156.438.234.933.234 1.487 0 .953-.16 1.801-.48 2.546zm1.643-6.727a5.218 5.218 0 0 0-1.675-1.17 5.062 5.062 0 0 0-2.071-.428c-.649 0-1.273.102-1.87.306a7.234 7.234 0 0 0-1.791.928l.181-.883h-5.103l-.532 2.233h2.57l-4.037 17.337h4.895l.506-2.234h-2.22l1.078-4.7c.372.311.846.565 1.421.76a5.747 5.747 0 0 0 1.85.291 8.351 8.351 0 0 0 3.214-.623 8.086 8.086 0 0 0 2.649-1.753 8.317 8.317 0 0 0 1.798-2.7c.442-1.048.662-2.2.662-3.455 0-.77-.136-1.491-.408-2.163a5.487 5.487 0 0 0-1.117-1.746zM112.909 23.095a5.764 5.764 0 0 1-1.11 1.778c-.46.494-.99.88-1.59 1.156a4.39 4.39 0 0 1-1.851.416c-.537 0-1.03-.098-1.48-.293a3.339 3.339 0 0 1-1.156-.817c-.32-.35-.569-.775-.746-1.273a4.906 4.906 0 0 1-.267-1.656c0-.814.139-1.562.416-2.246a5.617 5.617 0 0 1 1.103-1.76c.46-.489.985-.87 1.578-1.142a4.366 4.366 0 0 1 1.85-.41 3.75 3.75 0 0 1 1.461.28c.446.186.833.452 1.162.798.329.346.587.762.773 1.246.186.485.279 1.03.279 1.637 0 .83-.141 1.593-.422 2.286zm1.357-6.76a6.075 6.075 0 0 0-1.974-1.298 6.405 6.405 0 0 0-2.48-.475 7.42 7.42 0 0 0-2.058.286c-.662.19-1.283.46-1.863.805-.58.346-1.11.762-1.59 1.247a7.808 7.808 0 0 0-1.234 1.623 8.121 8.121 0 0 0-1.07 4.065c-.001.866.153 1.673.46 2.422.307.749.738 1.4 1.292 1.954a6.054 6.054 0 0 0 1.96 1.305c.753.317 1.58.474 2.48.474.719 0 1.411-.095 2.078-.286a7.928 7.928 0 0 0 1.876-.804 7.544 7.544 0 0 0 1.59-1.26 8.26 8.26 0 0 0 2.026-3.571 8.15 8.15 0 0 0 .286-2.17 6.048 6.048 0 0 0-1.779-4.318zM128.787 14.874a20.56 20.56 0 0 0-.805-.013c-.338 0-.673.05-1.006.15-.334.1-.654.236-.961.409-.307.173-.6.378-.876.616a7.665 7.665 0 0 0-.78.773l.429-1.844h-5.077l-.532 2.233h2.57l-2.596 11.22h4.869l.506-2.233h-2.233l1.558-6.753c.38-.7.865-1.266 1.454-1.694.589-.429 1.303-.643 2.142-.643l-.376 1.584h2.636l.857-3.636a22.12 22.12 0 0 0-1.059-.123 15.23 15.23 0 0 0-.72-.046M139.348 10.628l-2.74 1.116-.792 3.22h-2.246l-.532 2.234h2.22l-1.87 7.637c-.164.727-.199 1.34-.103 1.837.095.498.29.901.584 1.208.294.307.666.528 1.116.662.45.134.948.201 1.494.201.52 0 .99-.063 1.415-.188a9.254 9.254 0 0 0 1.324-.513l-.22-1.857c-.693.286-1.286.428-1.78.428-.458 0-.793-.08-1.006-.239-.212-.161-.317-.435-.317-.825 0-.2.019-.387.058-.565.039-.177.08-.353.123-.526l1.714-7.26h2.83l.533-2.233h-2.83l1.025-4.337M152.415 14.965l-.532 2.233h1.766l-1.714 7.35a5.262 5.262 0 0 1-.799.962 3.6 3.6 0 0 1-1.052.707c-.385.17-.828.254-1.33.254-1.134 0-1.877-.376-2.227-1.13-.35-.753-.336-1.935.045-3.545l1.597-6.831h-4.415l-.532 2.233h1.818l-1.233 5.364c-.165.71-.252 1.333-.26 1.87a5.39 5.39 0 0 0 .143 1.415c.104.407.249.756.435 1.046.186.29.387.543.603.76.356.329.794.578 1.318.746.524.17 1.08.253 1.669.253.277 0 .577-.03.902-.09.325-.061.654-.154.987-.28.333-.125.66-.29.98-.493.32-.203.62-.448.896-.734l-.312 1.364h4.52l.505-2.234h-2.012l2.597-11.22h-4.363M173.792 19.77c.191-.84.228-1.575.117-2.208-.112-.631-.345-1.16-.701-1.584a3.206 3.206 0 0 0-1.37-.948c-.56-.208-1.185-.311-1.877-.311a6.3 6.3 0 0 0-2.317.428 7.292 7.292 0 0 0-2.019 1.195l.325-1.377h-5.077l-.533 2.233h2.57l-2.596 11.22h2.637l2.244-9.765a6.74 6.74 0 0 1 1.728-1.214 4.388 4.388 0 0 1 1.921-.435c.953 0 1.627.26 2.026.78.4.519.476 1.29.235 2.31l-1.936 8.325h4.544l.507-2.234h-1.908l1.48-6.416"></path></g><path d="M220.455 5.864L186.78.09a3.063 3.063 0 0 0-3.548 2.485l-2.745 15.569-4.122 3.62 3.017 2.65-1.42 8.056a3.064 3.064 0 0 0 2.484 3.548l33.673 5.774a3.062 3.062 0 0 0 3.548-2.485l5.27-29.895a3.063 3.063 0 0 0-2.483-3.548zm-32.154 4.54h9.017l-.841 3.667h-2.013l-3.001 12.898h2.28l-.853 3.655h-9.016l.854-3.655h2.067l2.987-12.898h-2.32l.84-3.668zm11.67 16.565h2.093l3.001-12.898h-2.587l-.573 2.481h-4.589l1.428-6.149h19.004l-1.414 6.15h-4.587l.573-2.482h-2.587l-3.001 12.898h2.254l-.853 3.655h-9.002l.84-3.655z" fill="#5BA4FF"></path></g></svg>