<svg version="1.1" xmlns="http://www.w3.org/2000/svg" viewBox="0 0 1052 1052" width="1052" height="1052">
	<rect fill="#3369ff" width="1052" height="752"/>
	<rect y="752" fill="#001b66" width="1052" height="300"/>
	<g>
		<path fill="#FFFFFF" d="M546.414,717.958c5.052,2.894,13.135,5.787,21.344,5.787c8.841,0,13.513-3.996,13.513-10.062
			c0-5.788-4.041-9.097-14.271-12.955c-14.145-5.514-23.49-14.06-23.49-27.566c0-15.85,12.25-27.841,32.204-27.841
			c9.724,0,16.671,2.067,21.722,4.686l-4.293,16.816c-3.284-1.792-9.473-4.411-17.681-4.411c-8.335,0-12.377,4.271-12.377,8.958
			c0,5.927,4.673,8.545,15.786,13.095c15.028,6.063,21.975,14.609,21.975,27.703c0,15.575-10.86,28.807-34.225,28.807
			c-9.724,0-19.322-2.895-24.121-5.789L546.414,717.958z"/>
		<path fill="#FFFFFF" d="M691.897,692.183c0,30.599-16.797,48.93-41.803,48.93c-25.132,0-40.034-20.812-40.034-47.414
			c0-27.841,16.418-48.652,41.424-48.652C677.626,645.046,691.897,666.408,691.897,692.183z M630.395,693.286
			c0,18.33,7.829,31.149,20.711,31.149c13.008,0,20.458-13.507,20.458-31.564c0-16.814-7.197-31.148-20.458-31.148
			C637.971,661.723,630.395,675.229,630.395,693.286z"/>
		<path fill="#FFFFFF" d="M704.521,647.939c5.936-1.102,14.271-1.93,26.016-1.93c11.871,0,20.333,2.481,26.016,7.442
			c5.557,4.687,9.093,12.405,9.093,21.502c0,9.096-2.651,16.953-7.829,22.053c-6.567,6.616-16.292,9.787-27.658,9.787
			c-2.524,0-4.799-0.14-6.566-0.552v33.354h-19.07V647.939z M723.592,690.115c1.642,0.413,3.536,0.552,6.441,0.552
			c10.229,0,16.544-5.65,16.544-15.023c0-8.545-5.432-13.646-15.155-13.646c-3.788,0-6.441,0.276-7.83,0.691V690.115z"/>
		<path fill="#FFFFFF" d="M797.215,646.698v35.699h31.699v-35.699h19.196v92.897h-19.196v-38.867h-31.699v38.867H778.02v-92.897
			H797.215z"/>
		<path fill="#FFFFFF" d="M884.225,646.698v92.897h-19.195v-92.897H884.225z"/>
		<path fill="#FFFFFF" d="M920.721,715.751l-6.062,23.845h-19.827l25.89-92.897h25.258l26.521,92.897h-20.838l-6.568-23.845H920.721z
				M942.315,700.04l-5.303-19.71c-1.516-5.514-3.032-12.405-4.294-17.918h-0.254c-1.263,5.513-2.524,12.542-3.914,17.918
			l-5.052,19.71H942.315z"/>
	</g>
	<rect x="97.5" y="345" fill="#EFDB4F" width="430" height="430"/>
	<path fill="#333431" d="M492.307,672.445c-3.147-19.619-15.94-36.092-53.832-51.461c-13.161-6.049-27.835-10.383-32.209-20.355
		c-1.553-5.805-1.757-9.073-0.776-12.59c2.82-11.402,16.431-14.959,27.223-11.689c6.948,2.329,13.529,7.686,17.494,16.228
		c18.557-12.018,18.516-11.936,31.474-20.192c-4.742-7.357-7.276-10.749-10.383-13.896c-11.159-12.467-26.364-18.885-50.685-18.395
		c-4.209,0.531-8.461,1.104-12.671,1.636c-12.139,3.065-23.707,9.441-30.492,17.984c-20.355,23.094-14.551,63.519,10.219,80.154
		c24.401,18.312,60.249,22.481,64.827,39.608c4.455,20.967-15.409,27.753-35.152,25.343c-14.552-3.025-22.644-10.424-31.392-23.871
		c-16.104,9.318-16.104,9.318-32.658,18.843c3.924,8.584,8.052,12.467,14.633,19.905c31.146,31.597,109.094,30.043,123.074-17.78
		C491.572,700.281,495.331,689.327,492.307,672.445z M331.262,542.628h-40.22c0,34.744-0.164,69.242-0.164,103.984
		c0,22.114,1.145,42.387-2.453,48.601c-5.885,12.222-21.131,10.708-28.081,8.338c-7.072-3.474-10.668-8.42-14.838-15.409
		c-1.144-2.003-2.002-3.557-2.289-3.68c-10.914,6.662-21.786,13.366-32.699,20.029c5.436,11.159,13.447,20.846,23.707,27.142
		c15.329,9.196,35.929,12.016,57.47,7.07c14.02-4.088,26.119-12.549,32.454-25.424c9.156-16.881,7.194-37.319,7.113-59.922
		C331.466,616.489,331.262,579.619,331.262,542.628z"/>
	<polyline fill="#FFFFFF" points="722.5,630 542.5,630 542.5,450 "/>
</svg>